<svg id="visual" viewBox="0 0 900 600" width="900" height="600" xmlns="http://www.w3.org/2000/svg" xmlns:xlink="http://www.w3.org/1999/xlink" version="1.1"><rect x="0" y="0" width="900" height="600" fill="#01121f"></rect><defs><linearGradient id="grad1_0" x1="33.3%" y1="0%" x2="100%" y2="100%"><stop offset="20%" stop-color="#01121f" stop-opacity="1"></stop><stop offset="80%" stop-color="#01121f" stop-opacity="1"></stop></linearGradient></defs><defs><linearGradient id="grad2_0" x1="0%" y1="0%" x2="66.7%" y2="100%"><stop offset="20%" stop-color="#01121f" stop-opacity="1"></stop><stop offset="80%" stop-color="#01121f" stop-opacity="1"></stop></linearGradient></defs><g transform="translate(900, 0)"><path d="M0 378.6C-60.7 359.8 -121.4 341 -180 311.8C-238.6 282.6 -295.1 243 -327.9 189.3C-360.6 135.6 -369.6 67.8 -378.6 0L0 0Z" fill="#010e18"></path></g><g transform="translate(0, 600)"><path d="M0 -378.6C66.9 -369.1 133.8 -359.5 189.3 -327.9C244.8 -296.2 289 -242.3 318.7 -184C348.4 -125.7 363.5 -62.8 378.6 0L0 0Z" fill="#010e18"></path></g></svg>